name C:\Users\antoi\Documents\MyRepositories\upper-imu-dc\Results\main_tracking\Case_71\SHRUG01_orientations_groundFrame.mot
datacolumns 13
datarows 29
range 0.71000000 0.99000000
endheader 
time	radius_imu_[0][0]	radius_imu_[0][1]	radius_imu_[0][2]	radius_imu_[1][0]	radius_imu_[1][1]	radius_imu_[1][2]	radius_imu_[2][0]	radius_imu_[2][1]	radius_imu_[2][2]	radius_imu_x	radius_imu_y	radius_imu_z	
          0.71000000	          0.55825131	         -0.08604928	          0.82519755	         -0.20579845	          0.94916165	          0.23819985	         -0.80374279	         -0.30279975	          0.51216192	         -0.43532920	          0.97055186	          0.15293712	
          0.72000000	          0.55546037	         -0.08604613	          0.82707910	         -0.20693829	          0.94903604	          0.23771233	         -0.80538210	         -0.30319411	          0.50934567	         -0.43665566	          0.97389110	          0.15368800	
          0.73000000	          0.55269489	         -0.08604374	          0.82892993	         -0.20804962	          0.94891697	          0.23721706	         -0.80699673	         -0.30356722	          0.50656020	         -0.43795934	          0.97719192	          0.15444063	
          0.74000000	          0.54998200	         -0.08603971	          0.83073279	         -0.20910663	          0.94881197	          0.23670714	         -0.80857543	         -0.30389640	          0.50383803	         -0.43920363	          0.98042277	          0.15518314	
          0.75000000	          0.54735824	         -0.08602921	          0.83246497	         -0.21009737	          0.94872301	          0.23618582	         -0.81009755	         -0.30417696	          0.50121685	         -0.44036363	          0.98354171	          0.15589633	
          0.76000000	          0.54486462	         -0.08600623	          0.83410160	         -0.21101525	          0.94865000	          0.23566021	         -0.81153873	         -0.30441107	          0.49873719	         -0.44141788	          0.98650208	          0.15655707	
          0.77000000	          0.54254272	         -0.08596426	          0.83561806	         -0.21185638	          0.94859194	          0.23513870	         -0.81287408	         -0.30460381	          0.49643957	         -0.44234644	          0.98925698	          0.15714065	
          0.78000000	          0.54043139	         -0.08589682	          0.83699202	         -0.21261917	          0.94854728	          0.23462979	         -0.81408046	         -0.30476186	          0.49436142	         -0.44313161	          0.99176301	          0.15762273	
          0.79000000	          0.53856388	         -0.08579793	          0.83820502	         -0.21330463	          0.94851401	          0.23414165	         -0.81513807	         -0.30489325	          0.49253429	         -0.44375950	          0.99398346	          0.15798118	
          0.80000000	          0.53696587	         -0.08566228	          0.83924349	         -0.21391677	          0.94848959	          0.23368163	         -0.81603142	         -0.30500732	          0.49098194	         -0.44422114	          0.99589045	          0.15819718	
          0.81000000	          0.53565411	         -0.08548544	          0.84009935	         -0.21446290	          0.94847098	          0.23325622	         -0.81674986	         -0.30511480	          0.48971892	         -0.44451364	          0.99746634	          0.15825621	
          0.82000000	          0.53463586	         -0.08526397	          0.84077021	         -0.21495369	          0.94845455	          0.23287094	         -0.81728783	         -0.30522781	          0.48875001	         -0.44464073	          0.99870431	          0.15814863	
          0.83000000	          0.53390918	         -0.08499548	          0.84125903	         -0.21540290	          0.94843616	          0.23253049	         -0.81764453	         -0.30535980	          0.48807050	         -0.44461288	          0.99960783	          0.15786991	
          0.84000000	          0.53346373	         -0.08467882	          0.84157350	         -0.21582695	          0.94841119	          0.23223900	         -0.81782344	         -0.30552532	          0.48766700	         -0.44444699	          1.00018976	          0.15742060	
          0.85000000	          0.53328201	         -0.08431411	          0.84172527	         -0.21624418	          0.94837457	          0.23200027	         -0.81783174	         -0.30573976	          0.48751866	         -0.44416591	          1.00047081	          0.15680621	
          0.86000000	          0.53334073	         -0.08390295	          0.84172915	         -0.21667419	          0.94832096	          0.23181815	         -0.81767962	         -0.30601904	          0.48759858	         -0.44379771	          1.00047800	          0.15603703	
          0.87000000	          0.53361221	         -0.08344858	          0.84160225	         -0.21713689	          0.94824477	          0.23169684	         -0.81737971	         -0.30637916	          0.48787522	         -0.44337493	          1.00024299	          0.15512786	
          0.88000000	          0.53406556	         -0.08295608	          0.84136334	         -0.21765179	          0.94814034	          0.23164111	         -0.81694656	         -0.30683578	          0.48831356	         -0.44293386	          0.99980080	          0.15409795	
          0.89000000	          0.53466759	         -0.08243263	          0.84103236	         -0.21823719	          0.94800199	          0.23165655	         -0.81639641	         -0.30740379	          0.48887607	         -0.44251400	          0.99918870	          0.15297102	
          0.90000000	          0.53538345	         -0.08188777	          0.84063009	         -0.21890951	          0.94782420	          0.23174967	         -0.81574701	         -0.30809686	          0.48952338	         -0.44215759	          0.99844554	          0.15177537	
          0.91000000	          0.53617699	         -0.08133360	          0.84017800	         -0.21968278	          0.94760167	          0.23192789	         -0.81501761	         -0.30892703	          0.49021462	         -0.44190922	          0.99761137	          0.15054402	
          0.92000000	          0.53701099	         -0.08078489	          0.83969816	         -0.22056822	          0.94732944	          0.23219947	         -0.81422900	         -0.30990439	          0.49090774	         -0.44181543	          0.99672716	          0.14931470	
          0.93000000	          0.53784738	         -0.08025901	          0.83921314	         -0.22157406	          0.94700296	          0.23257328	         -0.81340342	         -0.31103679	          0.49155975	         -0.44192416	          0.99583464	          0.14812961	
          0.94000000	          0.53864762	         -0.07977568	          0.83874584	         -0.22270546	          0.94661819	          0.23305853	         -0.81256447	         -0.31232970	          0.49212716	         -0.44228405	          0.99497589	          0.14703481	
          0.95000000	          0.53937324	         -0.07935652	          0.83831918	         -0.22396457	          0.94617165	          0.23366445	         -0.81173665	         -0.31378615	          0.49256662	         -0.44294350	          0.99419282	          0.14607927	
          0.96000000	          0.53998654	         -0.07902442	          0.83795565	         -0.22535082	          0.94566046	          0.23439986	         -0.81094484	         -0.31540677	          0.49283571	         -0.44394968	          0.99352635	          0.14531364	
          0.97000000	          0.54045166	         -0.07880273	          0.83767663	         -0.22686124	          0.94508235	          0.23527289	         -0.81021354	         -0.31718998	          0.49289404	         -0.44534733	          0.99301528	          0.14478870	
          0.98000000	          0.54073578	         -0.07871443	          0.83750155	         -0.22849076	          0.94443563	          0.23629072	         -0.80956580	         -0.31913222	          0.49270462	         -0.44717763	          0.99269480	          0.14455377	
          0.99000000	          0.54081057	         -0.07878130	          0.83744698	         -0.23023259	          0.94371924	          0.23745939	         -0.80902218	         -0.32122813	          0.49223531	         -0.44947709	          0.99259493	          0.14465515	
